<?xml version="1.0" encoding="UTF-8" standalone="no"?>
<svg
   width="16"
   height="16"
   viewBox="0 0 4.2333332 4.2333335"
   version="1.1"
   id="svg1468"
   sodipodi:docname="blog.svg"
   inkscape:version="1.2.2 (b0a8486541, 2022-12-01)"
   inkscape:export-filename="/home/robert/Documents/Codeberg/Logo-Kit/svg/Codeberg-favicon_64px.png"
   inkscape:export-xdpi="384"
   inkscape:export-ydpi="384"
   xml:space="preserve"
   xmlns:inkscape="http://www.inkscape.org/namespaces/inkscape"
   xmlns:sodipodi="http://sodipodi.sourceforge.net/DTD/sodipodi-0.dtd"
   xmlns:xlink="http://www.w3.org/1999/xlink"
   xmlns="http://www.w3.org/2000/svg"
   xmlns:svg="http://www.w3.org/2000/svg"
   xmlns:rdf="http://www.w3.org/1999/02/22-rdf-syntax-ns#"
   xmlns:cc="http://creativecommons.org/ns#"
   xmlns:dc="http://purl.org/dc/elements/1.1/"><title
     id="title16">Codeberg logo</title><defs
     id="defs1462"><linearGradient
       xlink:href="#linearGradient6924"
       id="linearGradient6918"
       x1="42519.285"
       y1="-7078.7891"
       x2="42575.336"
       y2="-6966.9307"
       gradientUnits="userSpaceOnUse" /><linearGradient
       id="linearGradient6924"><stop
         style="stop-color:#2185d0;stop-opacity:0"
         offset="0"
         id="stop6920" /><stop
         id="stop6926"
         offset="0.49517274"
         style="stop-color:#2185d0;stop-opacity:0.48923996" /><stop
         style="stop-color:#2185d0;stop-opacity:0.63279623"
         offset="1"
         id="stop6922" /></linearGradient><linearGradient
       xlink:href="#linearGradient6924-6"
       id="linearGradient6918-3"
       x1="42519.285"
       y1="-7078.7891"
       x2="42575.336"
       y2="-6966.9307"
       gradientUnits="userSpaceOnUse" /><linearGradient
       id="linearGradient6924-6"><stop
         style="stop-color:#209060;stop-opacity:0;"
         offset="0"
         id="stop6920-7" /><stop
         id="stop6926-5"
         offset="0.49517274"
         style="stop-color:#209060;stop-opacity:0.3019608;" /><stop
         style="stop-color:#209060;stop-opacity:0.3019608;"
         offset="1"
         id="stop6922-3" /></linearGradient></defs><sodipodi:namedview
     showborder="false"
     id="base"
     pagecolor="#000000"
     bordercolor="#666666"
     borderopacity="1.0"
     inkscape:pageopacity="0"
     inkscape:pageshadow="2"
     inkscape:zoom="22.627417"
     inkscape:cx="15.512155"
     inkscape:cy="11.357903"
     inkscape:document-units="px"
     inkscape:current-layer="svg1468"
     inkscape:document-rotation="0"
     showgrid="false"
     fit-margin-top="0"
     fit-margin-left="0"
     fit-margin-right="0"
     fit-margin-bottom="0"
     units="px"
     inkscape:snap-global="false"
     inkscape:snap-page="true"
     showguides="false"
     inkscape:window-width="1920"
     inkscape:window-height="1008"
     inkscape:window-x="0"
     inkscape:window-y="0"
     inkscape:window-maximized="1"
     inkscape:pagecheckerboard="0"
     inkscape:deskcolor="#d1d1d1"
     inkscape:showpageshadow="2"><inkscape:grid
       type="xygrid"
       id="grid2067" /></sodipodi:namedview><metadata
     id="metadata1465"><rdf:RDF><cc:Work
         rdf:about=""><dc:format>image/svg+xml</dc:format><dc:type
           rdf:resource="http://purl.org/dc/dcmitype/StillImage" /><dc:title>Codeberg logo</dc:title><cc:license
           rdf:resource="http://creativecommons.org/publicdomain/zero/1.0/" /><dc:creator><cc:Agent><dc:title>Robert Martinez</dc:title></cc:Agent></dc:creator><dc:rights><cc:Agent><dc:title>Codeberg and the Codeberg Logo are trademarks of Codeberg e.V.</dc:title></cc:Agent></dc:rights><dc:date>2020-04-09</dc:date><dc:publisher><cc:Agent><dc:title>Codeberg e.V.</dc:title></cc:Agent></dc:publisher><dc:source>codeberg.org</dc:source></cc:Work><cc:License
         rdf:about="http://creativecommons.org/publicdomain/zero/1.0/"><cc:permits
           rdf:resource="http://creativecommons.org/ns#Reproduction" /><cc:permits
           rdf:resource="http://creativecommons.org/ns#Distribution" /><cc:permits
           rdf:resource="http://creativecommons.org/ns#DerivativeWorks" /></cc:License></rdf:RDF></metadata><path
     style="fill:#209060;fill-opacity:1;stroke-width:0.999996"
     d="M -4.229481,4.4298151 C -4.7367854,4.322746 -5.2658518,4.2954146 -5.7755602,4.4024679 c 0.3036437,-0.2928894 0.7450069,-0.3707953 1.1517529,-0.3871297 0.2204613,-0.00641 0.386625,-0.2239178 0.3549743,-0.4376875 0.00413,-0.6127636 0.00143,-1.2255562 0.00223,-1.838333 0.1396895,-0.025613 0.3039736,0.046284 0.2604373,0.2164008 0.00373,0.7837617 0.0092,1.5678321 -0.00326,2.3514737 -0.0031,0.1142063 -0.1236826,0.156583 -0.2200061,0.1226226 z m -3.913386,-0.0024 c -0.1541674,-0.1166764 -0.055581,-0.350499 -0.085835,-0.51763 0.00278,-0.6867159 -0.00981,-1.373887 0.00807,-2.0603227 0.00445,-0.1089157 0.2312217,-0.1559044 0.2552678,-0.078252 0.00286,0.6442974 -0.00707,1.2888702 0.00715,1.9329514 0.028188,0.2065689 0.2411174,0.3311811 0.4386986,0.317857 0.3788488,0.018275 0.7815235,0.1106193 1.0635577,0.3799495 -0.5254896,-0.1116686 -1.0708745,-0.073621 -1.5934681,0.034666 -0.031256,0.00253 -0.063894,0.00323 -0.093425,-0.00923 z M -6.2646072,4.253043 C -6.607494,3.9204104 -7.0957367,3.7930303 -7.562315,3.7843773 -7.809213,3.7742694 -7.7118461,3.4701914 -7.7331075,3.3099719 c 0.00358,-0.6552707 -0.011372,-1.3110646 0.00854,-1.9660113 0.046824,-0.2129525 0.3320201,-0.1023987 0.4853841,-0.1011518 0.394158,0.060239 0.7967214,0.2573337 0.9930787,0.6192382 0.025772,0.3147921 0.00715,0.6345342 0.013121,0.9511825 -7e-4,0.4899609 -0.00183,0.9799212 -0.0027,1.4698817 -0.00964,-0.010022 -0.019264,-0.020045 -0.028896,-0.030068 z m 0.2642416,-1.1558804 c 0.00262,-0.407012 -0.00477,-0.8143904 0.00909,-1.2211597 0.1835014,-0.3614547 0.5807119,-0.5620754 0.967324,-0.6279519 0.1618697,-0.00204 0.4230485,-0.1146725 0.5130048,0.069736 0.026623,0.5159135 0.00706,1.033629 0.01285,1.550268 -0.00683,0.2743467 0.013026,0.5515808 -0.015218,0.8241698 -0.094052,0.1540814 -0.3036487,0.072696 -0.452289,0.1144376 -0.3824209,0.04806 -0.7634741,0.1982424 -1.0347982,0.4790951 1.36e-5,-0.3961971 3.74e-5,-0.7924036 4.62e-5,-1.1885949 z"
     id="path2127" /><path
     id="path4936"
     style="fill:#209060;stroke-width:0.529167;stroke-linecap:round;stroke-linejoin:round;stroke-opacity:0.685723"
     d="M 0.52193197 0.20515544 L 0.18603516 0.36896973 L 0.17414958 0.64492188 L 1.5657959 2.1063314 L 1.576648 1.8386475 L 1.8138428 1.8500163 L 1.8417481 1.6267741 L 2.120284 1.6603638 L 0.7792806 0.29093831 L 0.52193197 0.20515544 z M 1.9151286 1.7518311 L 1.9228801 1.9797241 L 1.6918864 1.9264974 L 1.6634644 2.2086507 L 1.6712158 2.216919 L 2.4277588 2.4753011 L 2.5569499 2.3120036 L 2.262911 1.8060913 L 2.256193 1.7993734 L 1.9151286 1.7518311 z " /><path
     style="fill:none;stroke-width:0.26458333;stroke-linecap:round;stroke-linejoin:round;stroke-opacity:1;stroke:#209060;stroke-dasharray:none"
     d="M 2.7412354,2.7495312 3.072458,2.5989248 v 0.3304826 l 0.5025375,-0.1183336 -0.04303,0.4773022 0.4349583,5.557e-4 0.2033516,0.5532191"
     id="path4943" /><path
     style="fill:none;stroke:#209060;stroke-width:0.264583;stroke-linecap:round;stroke-linejoin:round;stroke-dasharray:none;stroke-opacity:1"
     d="M 2.0206774,3.298689 2.4470016,3.3836483 2.7471433,3.71354 3.3359867,3.8402434 3.4610397,4.3541058"
     id="path5463" /><path
     style="fill:none;stroke:#209060;stroke-width:0.264583;stroke-linecap:round;stroke-linejoin:round;stroke-dasharray:none;stroke-opacity:1"
     d="M 1.6196804,3.7555119 2.2261905,3.9606902"
     id="path5465" /><path
     style="fill:none;stroke:#209060;stroke-width:0.264583;stroke-linecap:round;stroke-linejoin:round;stroke-dasharray:none;stroke-opacity:1"
     d="M 3.5304499,2.1259037 3.8607978,2.491339 4.1515143,2.3619045 4.3128781,2.7533039"
     id="path5467" /><path
     style="fill:none;stroke:#209060;stroke-width:0.264583;stroke-linecap:round;stroke-linejoin:round;stroke-dasharray:none;stroke-opacity:1"
     d="M 4.0436286,1.7924297 4.7310293,1.7483135"
     id="path5469" /><path
     style="fill:none;stroke:#209060;stroke-width:0.264583;stroke-linecap:round;stroke-linejoin:round;stroke-dasharray:none;stroke-opacity:1"
     d="M 1.1851958,4.1248874 1.4937303,4.4344711"
     id="path6220" /></svg>
