<?xml version="1.0" encoding="UTF-8" standalone="no"?>
<svg
   width="418.25107"
   height="128"
   version="1.1"
   id="svg22"
   sodipodi:docname="icon.svg"
   xml:space="preserve"
   inkscape:version="1.2.2 (b0a8486541, 2022-12-01)"
   xmlns:inkscape="http://www.inkscape.org/namespaces/inkscape"
   xmlns:sodipodi="http://sodipodi.sourceforge.net/DTD/sodipodi-0.dtd"
   xmlns="http://www.w3.org/2000/svg"
   xmlns:svg="http://www.w3.org/2000/svg"><defs
     id="defs26" /><sodipodi:namedview
     id="namedview24"
     pagecolor="#ffffff"
     bordercolor="#000000"
     borderopacity="0.25"
     inkscape:showpageshadow="2"
     inkscape:pageopacity="0.0"
     inkscape:pagecheckerboard="0"
     inkscape:deskcolor="#d1d1d1"
     showgrid="false"
     inkscape:zoom="3.6875"
     inkscape:cx="87.050848"
     inkscape:cy="64.813559"
     inkscape:window-width="1920"
     inkscape:window-height="1008"
     inkscape:window-x="0"
     inkscape:window-y="0"
     inkscape:window-maximized="1"
     inkscape:current-layer="g4517" /><g
     id="g4517"
     transform="matrix(1.3637786,0,0,1.3637786,-5.2301391,-6.6489416)"
     style="stroke-width:0.733257"><rect
       style="fill:#e1e1e1;fill-opacity:1;stroke-width:27.7137;stroke-linecap:round;stroke:none;stroke-opacity:1"
       id="rect4375"
       width="306.68546"
       height="93.85688"
       x="3.8350353"
       y="4.8753819"
       rx="9.3012714"
       ry="9.3012724" /><g
       id="g614"
       transform="translate(-2.1347837,-187.30661)"
       style="stroke-width:0.733257"><rect
         width="48.293663"
         height="48.293663"
         x="16.424459"
         y="227.27745"
         fill="#363d52"
         stroke="#212532"
         stroke-width="2.93303"
         rx="10.265595"
         id="rect2"
         ry="10.265595" /><g
         fill="#ffffff"
         transform="matrix(0.03933597,0,0,0.03933597,20.44452,231.29752)"
         id="g14"
         style="stroke-width:1.88273"><path
           d="m 105,673 v 33 q 407,354 814,0 v -33 z"
           id="path4"
           style="stroke-width:1.88273" /><path
           fill="#478cbf"
           d="m 105,673 152,14 q 12,1 15,14 l 4,67 132,10 8,-61 q 2,-11 15,-15 h 162 q 13,4 15,15 l 8,61 132,-10 4,-67 q 3,-13 15,-14 L 919,673 V 427 q 30,-39 56,-81 -35,-59 -83,-108 -43,20 -82,47 -40,-37 -88,-64 7,-51 8,-102 -59,-28 -123,-42 -26,43 -46,89 -49,-7 -98,0 -20,-46 -46,-89 -64,14 -123,42 1,51 8,102 -48,27 -88,64 -39,-27 -82,-47 -48,49 -83,108 26,42 56,81 z m 0,33 v 39 c 0,276 813,276 814,0 v -39 l -134,12 -5,69 q -2,10 -14,13 l -162,11 q -12,0 -16,-11 L 578,735 H 446 l -10,65 q -4,11 -16,11 L 258,800 q -12,-3 -14,-13 l -5,-69 z"
           id="path6"
           style="stroke-width:4.83414" /><path
           d="m 483,600 c 0,34 58,34 58,0 v -86 c 0,-34 -58,-34 -58,0 z"
           id="path8"
           style="stroke-width:1.88273" /><circle
           cx="725"
           cy="526"
           r="90"
           id="circle10"
           style="stroke-width:1.88273" /><circle
           cx="299"
           cy="526"
           r="90"
           id="circle12"
           style="stroke-width:1.88273" /></g><g
         fill="#414042"
         transform="matrix(0.03933597,0,0,0.03933597,20.44452,231.29752)"
         id="g20"
         style="stroke-width:1.88273"><circle
           cx="307"
           cy="532"
           r="60"
           id="circle16"
           style="stroke-width:1.88273" /><circle
           cx="717"
           cy="532"
           r="60"
           id="circle18"
           style="stroke-width:1.88273" /></g></g><text
       xml:space="preserve"
       style="font-size:16px;line-height:176.8%;font-family:'Liberation Sans';-inkscape-font-specification:'Liberation Sans';fill:#000000;stroke-width:27.7137;stroke-linecap:round"
       x="44.584164"
       y="26.264572"
       id="text309"><tspan
         sodipodi:role="line"
         id="tspan307"
         x="44.584164"
         y="26.264572"
         style="font-style:normal;font-variant:normal;font-weight:bold;font-stretch:normal;font-family:sans-serif;-inkscape-font-specification:sans-serif;stroke-width:27.7137">rat-and-furrius.x86_65</tspan></text><text
       xml:space="preserve"
       style="font-size:10.2656px;line-height:176.8%;font-family:'Liberation Sans';-inkscape-font-specification:'Liberation Sans';fill:#000000;stroke-width:27.7137;stroke-linecap:round"
       x="223.60611"
       y="27.170607"
       id="text309-0"><tspan
         sodipodi:role="line"
         id="tspan307-62"
         x="223.60611"
         y="27.170607"
         style="font-style:italic;font-variant:normal;font-weight:bold;font-stretch:normal;font-size:10.2656px;font-family:sans-serif;-inkscape-font-specification:sans-serif;fill:#999999;fill-opacity:1;stroke-width:27.7137">(75mb)</tspan></text><text
       xml:space="preserve"
       style="font-size:10.2656px;line-height:176.8%;font-family:'Liberation Sans';-inkscape-font-specification:'Liberation Sans';fill:#000000;stroke-width:27.7137;stroke-linecap:round"
       x="219.20659"
       y="92.228195"
       id="text309-0-6"><tspan
         sodipodi:role="line"
         id="tspan307-62-1"
         x="219.20659"
         y="92.228195"
         style="font-style:italic;font-variant:normal;font-weight:bold;font-stretch:normal;font-size:10.2656px;font-family:sans-serif;-inkscape-font-specification:sans-serif;fill:#999999;fill-opacity:1;stroke-width:27.7137">(3mb)</tspan></text><text
       xml:space="preserve"
       style="font-size:10.2656px;line-height:176.8%;font-family:'Liberation Sans';-inkscape-font-specification:'Liberation Sans';fill:#000000;stroke-width:27.7137;stroke-linecap:round"
       x="69.981377"
       y="92.024025"
       id="text309-0-6-8"><tspan
         sodipodi:role="line"
         id="tspan307-62-1-7"
         x="69.981377"
         y="92.024025"
         style="font-style:italic;font-variant:normal;font-weight:bold;font-stretch:normal;font-size:10.2656px;font-family:sans-serif;-inkscape-font-specification:sans-serif;fill:#999999;fill-opacity:1;stroke-width:27.7137">(72mb)</tspan></text><text
       xml:space="preserve"
       style="font-size:33.0579px;line-height:176.8%;font-family:'Liberation Sans';-inkscape-font-specification:'Liberation Sans';fill:#000000;stroke-width:27.7137;stroke-linecap:round"
       x="137.98569"
       y="68.08213"
       id="text309-3"><tspan
         sodipodi:role="line"
         id="tspan307-6"
         x="137.98569"
         y="68.08213"
         style="font-style:normal;font-variant:normal;font-weight:normal;font-stretch:normal;font-family:sans-serif;-inkscape-font-specification:sans-serif;stroke-width:27.7137">+</tspan></text><text
       xml:space="preserve"
       style="font-size:16px;line-height:100%;font-family:'Liberation Sans';-inkscape-font-specification:'Liberation Sans';white-space:pre;inline-size:65.9091;display:inline;fill:#478cbf;fill-opacity:1;stroke-width:27.7137;stroke-linecap:round"
       x="-91.61335"
       y="296.32925"
       id="text309-2"
       transform="translate(161.30822,-236.49255)"><tspan
         x="-91.61335"
         y="296.32925"
         id="tspan9597"><tspan
           style="font-style:italic;font-family:sans-serif;-inkscape-font-specification:sans-serif"
           id="tspan9595">Export </tspan></tspan><tspan
         x="-91.61335"
         y="312.47518"
         id="tspan9601"><tspan
           style="font-style:italic;font-family:sans-serif;-inkscape-font-specification:sans-serif"
           id="tspan9599">Template</tspan></tspan></text><text
       xml:space="preserve"
       style="font-size:16px;line-height:100%;font-family:'Liberation Sans';-inkscape-font-specification:'Liberation Sans';white-space:pre;inline-size:96.8886;display:inline;fill:#d44475;fill-opacity:1;stroke-width:27.7137;stroke-linecap:round"
       x="54.870205"
       y="296.32925"
       id="text309-2-0"
       transform="translate(165.61706,-236.28838)"><tspan
         x="54.870205"
         y="296.32925"
         id="tspan9605"><tspan
           style="font-style:italic;font-family:sans-serif;-inkscape-font-specification:sans-serif"
           id="tspan9603">Archivos de </tspan></tspan><tspan
         x="54.870205"
         y="312.47518"
         id="tspan9609"><tspan
           style="font-style:italic;font-family:sans-serif;-inkscape-font-specification:sans-serif"
           id="tspan9607">mi juego</tspan></tspan></text><g
       id="g569"
       transform="matrix(0.39407362,0,0,0.39407362,301.51357,-68.042567)"
       style="stroke-width:1.86071"><rect
         x="-351.63522"
         y="274.1181"
         width="124"
         height="124"
         rx="26.049944"
         fill="#363d52"
         stroke="#212532"
         stroke-width="7.44285"
         id="rect1"
         style="fill:#121224;fill-opacity:1;stroke:#121224;stroke-opacity:1"
         ry="26.049944" /><path
         style="fill:#79304e;fill-opacity:1;stroke:none;stroke-width:14.0653;stroke-linecap:round;stroke-linejoin:round;stroke-opacity:1"
         d="m -272.04927,372.58577 0.64664,-4.42714 29.00026,-6.61583 1.24356,-1.89024 2.9846,1.49229 2.18868,-0.44769 c 0,0 0.99488,-0.49743 0.74616,-2.03946 -0.24861,-1.54204 1.69124,-5.57124 -0.94512,-7.75993 -2.6364,-2.1887 -5.91944,-2.38767 -5.91944,-2.38767 l -40.68986,9.45119 z"
         id="path22-1" /><path
         style="fill:#272743;fill-opacity:1;stroke:none;stroke-width:14.0653;stroke-linecap:round;stroke-linejoin:round;stroke-opacity:1"
         d="m -268.53356,303.49258 c 0,0 1.42835,-7.37067 5.71955,-9.90317 4.2912,-2.53251 12.24043,-4.99467 12.24043,-4.99467 0,0 7.80857,8.30099 7.59752,16.88338 -0.21115,8.58237 2.04006,15.26538 -0.7738,21.10421 -2.81389,5.83883 -5.28503,8.3709 -7.59752,8.37134 -2.31252,4.4e-4 -14.28053,-1.05521 -14.28053,-1.05521"
         id="path9-5" /><path
         style="fill:#c59da5;fill-opacity:1;stroke:none;stroke-width:14.0653;stroke-linecap:round;stroke-linejoin:round;stroke-opacity:1"
         d="m -294.00202,309.26278 c 0,0 14.52497,-9.94862 25.46846,-5.7702 10.94348,4.17843 17.90752,15.9178 16.71368,22.48389 -1.19384,6.56609 -3.38252,10.1476 -0.19881,13.53013 3.18357,3.38253 11.93833,8.55581 11.93833,8.55581 l -11.3414,16.31574 -9.33131,-1.6467 -8.82965,-6.1142 -9.67796,2.90194 -61.37315,17.36063 24.94396,-23.8431 c 0,0 11.14244,-37.60579 14.72397,-40.3914 3.58148,-2.78562 6.96404,-3.38254 6.96404,-3.38254 z"
         id="path7-4"
         sodipodi:nodetypes="cssscccccccscc" /><path
         style="fill:#8a6d9b;fill-opacity:1;stroke:none;stroke-width:14.0653;stroke-linecap:round;stroke-linejoin:round;stroke-opacity:1"
         d="m -303.08085,340.03116 c 0,0 1.61801,1.68834 0.0703,2.6732 -1.54764,0.98486 -11.74802,3.93945 -16.74268,-0.63313 -4.99467,-4.57258 -15.12471,-17.16476 -15.19504,-22.8629 -0.0703,-5.69814 -0.49242,-19.27518 2.74356,-18.50136 3.23595,0.77382 16.03917,4.0098 16.03917,4.0098 l 15.19504,16.46129 z"
         id="path10-2" /><path
         style="fill:#4a4c7d;fill-opacity:1;stroke:none;stroke-width:14.0653;stroke-linecap:round;stroke-linejoin:round;stroke-opacity:1"
         d="m -301.538,337.48618 c 0,0 -6.33126,-2.18077 -7.59752,-5.20571 -1.26622,-3.02494 -9.84863,-10.6928 -9.84863,-10.6928 0,0 9.56725,5.41675 9.2155,2.88424 -0.35168,-2.5325 -8.08994,-12.66253 -8.08994,-12.66253 l 16.39096,11.04454 z"
         id="path11-4" /><path
         style="fill:#272743;fill-opacity:1;stroke:none;stroke-width:14.0653;stroke-linecap:round;stroke-linejoin:round;stroke-opacity:1"
         d="m -296.78766,328.36414 c -6.56608,0 -5.6203,2.66003 -9.57519,-4.04224 -3.95493,-6.70227 -8.53129,-13.03941 -12.7097,-17.44679 -4.17844,-4.40737 -13.1322,-6.16814 -13.1322,-6.16814 0,0 3.58152,-4.3774 6.96404,-2.1887 3.38252,2.1887 29.84589,14.32602 30.64177,17.90752 0.79588,3.5815 -2.18872,11.93835 -2.18872,11.93835 z"
         id="path8-5" /><path
         style="fill:#8a6d9b;fill-opacity:1;stroke:none;stroke-width:14.0653;stroke-linecap:round;stroke-linejoin:round;stroke-opacity:1"
         d="m -266.15048,303.64909 11.88872,6.50713 -3.3741,1.61799 11.8158,5.31123 -9.53208,1.0552 5.62779,7.59752 -8.82861,-4.85397 -20.61179,-16.98889 -8.25312,4.99931 -1.24109,-2.57401 2.47458,-6.32125 8.34866,1.76457 1.83785,-2.36327 z"
         id="path12-2"
         sodipodi:nodetypes="cccccccccccccc" /><path
         style="fill:#8a6d9b;fill-opacity:1;stroke:none;stroke-width:14.0653;stroke-linecap:round;stroke-linejoin:round;stroke-opacity:1"
         d="m -273.52626,334.63177 3.681,7.36198 4.47688,0.39795 -3.681,-13.13218 -12.13732,-1.69127 z"
         id="path13-5" /><path
         style="fill:#494c7d;fill-opacity:1;stroke:none;stroke-width:14.0653;stroke-linecap:round;stroke-linejoin:round;stroke-opacity:1"
         d="m -287.06565,341.21459 13.78811,5.2057 -3.65807,3.51737 z"
         id="path14-7" /><path
         style="fill:#494c7d;fill-opacity:1;stroke:none;stroke-width:14.0653;stroke-linecap:round;stroke-linejoin:round;stroke-opacity:1"
         d="m -244.98184,343.58553 -10.44608,6.86455 c 0,0 5.17332,3.68102 5.67072,3.87997 0.25092,0.10029 1.23465,-0.002 2.14881,-0.12743 0.43556,-0.0599 -0.16484,3.8142 0.15209,3.76275 0.33778,-0.0548 1.57887,-4.03328 1.57887,-4.03328 l 3.18356,-6.86455 z"
         id="path15-1"
         sodipodi:nodetypes="ccsssccc" /><path
         style="fill:#494c7d;fill-opacity:1;stroke:none;stroke-width:14.0653;stroke-linecap:round;stroke-linejoin:round;stroke-opacity:1"
         d="m -252.38796,337.13565 c 0,0 -10.24709,3.38253 -9.84913,5.17329 0.39792,1.79075 4.57637,2.98459 4.57637,2.98459 l 9.05324,-4.57637 z"
         id="path16-2" /><path
         style="fill:#782f4e;fill-opacity:1;stroke:none;stroke-width:14.0653;stroke-linecap:round;stroke-linejoin:round;stroke-opacity:1"
         d="m -261.36879,371.83962 -3.97928,5.96918 -1.89024,0.19896 -26.36386,-21.19057 2.58665,-5.77021 z"
         id="path18-6" /><path
         style="fill:#d44475;fill-opacity:1;stroke:none;stroke-width:14.0653;stroke-linecap:round;stroke-linejoin:round;stroke-opacity:1"
         d="m -291.01552,351.047 c 0,0 18.50444,1.98972 20.09624,3.48201 1.59176,1.4923 9.35169,11.63989 9.35169,13.72911 0,2.08921 0.1988,3.5815 0.1988,3.5815 l -1.98972,0.89538 z"
         id="path17-0" /><path
         style="fill:#eb7983;fill-opacity:1;stroke:none;stroke-width:14.0653;stroke-linecap:round;stroke-linejoin:round;stroke-opacity:1"
         d="m -288.64668,355.59922 -42.23337,12.59769 -15.42036,10.54554 19.69825,5.57123 55.5133,-11.04297 -0.92493,-5.50335 z"
         id="path19-2"
         sodipodi:nodetypes="ccccccc" /><path
         style="fill:#d34374;fill-opacity:1;stroke:none;stroke-width:14.0653;stroke-linecap:round;stroke-linejoin:round;stroke-opacity:1"
         d="m -282.64455,361.04536 -42.48062,12.28655 45.11698,-9.45119 -0.4974,-1.74101 z"
         id="path20-4" /><path
         style="fill:#d34374;fill-opacity:1;stroke:none;stroke-width:14.0653;stroke-linecap:round;stroke-linejoin:round;stroke-opacity:1"
         d="m -273.61401,367.63985 -1.19588,1.47729 -2.46219,-0.84417 -49.24315,12.52184 -15.40608,-1.96973 15.54679,4.43189 50.50941,-9.91898 1.05522,-1.19591 0.98484,0.84417 1.05522,-0.84417 z"
         id="path21-8" /></g></g></svg>
