<?xml version="1.0" encoding="UTF-8" standalone="no"?>
<svg
   viewBox="409.289 277.787 114.30506 114.3008"
   width="114.30505"
   height="114.3008"
   version="1.1"
   id="svg27"
   sodipodi:docname="rss-logo.svg"
   inkscape:version="1.2.2 (b0a8486541, 2022-12-01)"
   xml:space="preserve"
   xmlns:inkscape="http://www.inkscape.org/namespaces/inkscape"
   xmlns:sodipodi="http://sodipodi.sourceforge.net/DTD/sodipodi-0.dtd"
   xmlns="http://www.w3.org/2000/svg"
   xmlns:svg="http://www.w3.org/2000/svg"><defs
     id="defs31" /><sodipodi:namedview
     id="namedview29"
     pagecolor="#505050"
     bordercolor="#eeeeee"
     borderopacity="1"
     inkscape:showpageshadow="0"
     inkscape:pageopacity="0"
     inkscape:pagecheckerboard="0"
     inkscape:deskcolor="#505050"
     showgrid="false"
     inkscape:zoom="2.9199604"
     inkscape:cx="11.986464"
     inkscape:cy="93.151948"
     inkscape:window-width="1920"
     inkscape:window-height="1008"
     inkscape:window-x="1920"
     inkscape:window-y="0"
     inkscape:window-maximized="1"
     inkscape:current-layer="svg27" /><path
     style="fill:#209060;fill-opacity:1;stroke-width:0.999997"
     d="m 422.48998,391.75849 c -2.10597,-0.47981 -3.33512,-0.92973 -4.76395,-1.74387 -3.75941,-2.14206 -6.64732,-5.79151 -7.80143,-9.8586 -0.72712,-2.56239 -0.72331,-6.4612 0.009,-8.82988 1.71889,-5.56267 5.7113,-9.55218 11.30368,-11.29546 1.0496,-0.32718 2.01582,-0.41527 4.46488,-0.40711 2.77144,0.009 3.32767,0.0778 4.91136,0.60456 2.56679,0.85387 4.4359,2.02771 6.47403,4.06586 2.03814,2.03814 3.21198,3.90724 4.06586,6.47404 0.52683,1.58367 0.59529,2.13992 0.60455,4.91136 0.008,2.44904 -0.08,3.41528 -0.4071,4.46487 -1.72949,5.54814 -5.73385,9.582 -11.18384,11.26619 -2.04813,0.63294 -5.69957,0.79848 -7.67668,0.34804 z m 41.18162,-2.2938 c -0.45026,-7.67188 -2.27852,-14.66825 -5.58579,-21.37559 -2.807,-5.69277 -5.71732,-9.72551 -10.39277,-14.40096 -4.74644,-4.74643 -8.74577,-7.6168 -14.62421,-10.49599 -6.54854,-3.20737 -13.61248,-5.03816 -21.15235,-5.48207 l -2.6231,-0.15445 v -10.83195 -10.83193 l 3.51608,0.14153 c 14.45112,0.58177 28.76215,5.53162 40.65431,14.06137 6.92835,4.96942 12.85335,10.8944 17.82276,17.82277 8.52975,11.89213 13.47959,26.20317 14.06136,40.6543 l 0.14155,3.51608 h -10.83195 -10.83195 z m 38.17468,2.12081 c -0.056,-0.27626 -0.15613,-2.15988 -0.22261,-4.18581 -0.32825,-10.00362 -2.88851,-21.315 -7.07415,-31.25414 -7.13931,-16.95283 -19.85689,-32.01231 -35.47278,-42.00503 -3.78519,-2.42217 -8.35925,-4.8859 -12.30177,-6.62614 -10.64382,-4.69822 -22.19501,-7.3961 -33.46322,-7.81565 l -3.90675,-0.14547 -0.058,-10.88313 -0.058,-10.88313 h 1.20519 c 0.66287,0 2.99951,0.1028 5.19254,0.22847 16.00403,0.91701 30.96438,4.94827 45.28744,12.20326 15.39385,7.7974 29.26185,19.4697 39.86882,33.55648 10.42016,13.83869 17.91649,31.09654 20.94565,48.22066 0.96319,5.44482 1.80541,14.25652 1.80541,18.88886 v 1.20307 h -10.82301 -10.82305 z"
     id="path312" /></svg>
